<?xml version="1.0" encoding="iso-8859-1"?>
<!-- Generator: Adobe Illustrator 16.0.0, SVG Export Plug-In . SVG Version: 6.00 Build 0)  -->
<!DOCTYPE svg PUBLIC "-//W3C//DTD SVG 1.1//EN" "http://www.w3.org/Graphics/SVG/1.1/DTD/svg11.dtd">
<svg version="1.1" id="Capa_1" xmlns="http://www.w3.org/2000/svg" xmlns:xlink="http://www.w3.org/1999/xlink" x="0px" y="0px"
	 width="269.884px" height="269.884px" viewBox="0 0 269.884 269.884" style="enable-background:new 0 0 269.884 269.884;"
	 xml:space="preserve">
<g>
	<g>
		<path d="M232.095,45.583c5.7-3,2.7-12.5-4.199-11c0.1-1.7-0.5-3.4-2.301-4.7c-8.3-6.101-17.699-11-23.699-19.4
			c1.199-3.1,0.1-7.399-3.7-8.5c-19.9-5.5-41.5,1.8-61.3,5.5c-33.9,6.4-69.301,2.3-103.601,7.101c-2.6,0.199-4.5,3.399-4.5,5.8
			c-0.1,40.8-0.7,81.6,2.3,122.3c2.9,39.8,8.101,79.3,3.301,119.2c-0.2,1.899,0.899,3.2,2.399,3.8c-1.6,1.5-0.1,4.2,1.9,4.2
			c32.3,0.1,64.2-7.3,97.1-6.601c28.3,0.601,58.601,3.7,85.9-5.3c0.8-0.3,1.399-0.7,2-1.2c2.8,1.2,6.899-0.3,6.6-4
			C224.396,188.782,256.095,107.482,232.095,45.583z M202.795,25.683c4.2,4.1,9.101,8.1,14.2,11.3c-7.4,1.4-14.8,2.3-22.4,2.9
			c-0.3-8.5,0.2-17-0.199-25.5C196.095,18.683,199.595,22.482,202.795,25.683z M220.095,247.482c-35.899,2.8-70.899,2.8-107,2.601
			c-22.6-0.2-50-0.5-70.1,11.399c14.4-62.399-2.4-132.1-2.3-195.6c0-18-7.4-40,21-42c18-1.3,36.2-0.601,54.3-1.3
			c24-0.9,47.5-9.5,71.5-9.2c-1.6,10.8-2.4,21.7-3.7,32.5c-0.399,3.1,2.8,5.399,5.5,5.5c10,0.5,20.5-0.5,30.5-2.5
			C231.595,115.482,208.696,181.183,220.095,247.482z"/>
		<path d="M163.996,57.183v-0.1c-0.4-1-1-1.7-1.6-2.2c0.1,0,0.1-0.101,0.199-0.101c-4-3.699-8.699-7.1-11.899-11.699
			c-2.9-4.2-8.5-3.301-10.3,1.3c-0.301,0.899-1,1.899-1.7,3c-1.5-2-3-4-4.4-6.101c-2.399-3.699-7.1-3.399-9.5,0
			c-1.3,1.9-2.8,3.601-4.399,5.301c-2.101-2.301-4.301-4.5-6.101-7.101c-2.8-4-8.5-3.399-10.1,1.3c-1.8,5.101-4.5,9.7-7.3,14.301
			c-3.2-6.101-6.2-12.301-9.101-18.7c-1.399-3-6-2.601-7.399,0c-5.2,9.2-7,18.899-6.4,29.399c0.2,3.7,5.1,3.5,5.6,0
			c0.801-6.1,1.9-11.5,3.9-16.8c2.6,6.601,5.4,13.101,8.8,19.4c1.9,3.5,7.101,3.2,9,0c3.2-5.5,6.7-10.7,9.7-16.3
			c1.7,1.8,3.3,3.5,4.7,5.5c2.5,3.5,7,3.5,9.5,0c1.2-1.7,2.6-3.2,3.899-4.7c1.601,2.2,3.2,4.3,4.7,6.6c2.4,3.8,7.101,3.3,9.601,0
			c1.199-1.6,2.199-2.899,3.199-4.1c2.801,3,6,5.7,9.2,8.1C159.496,66.383,165.795,61.683,163.996,57.183z"/>
		<path d="M79.496,91.282c-0.1-3.6-3.8-5.6-6.9-4c-2.699,1.4-6.6,0.601-9.6,0.5c-1.1-0.1-2.3,0-3.4,0c-1.6-0.5-3.399-0.3-4.6,0.801
			c-0.2,0.1-0.5,0.1-0.8,0.199c-2,0.801-2.101,2.7-1.101,3.9c-2.1,6.8-1.199,15.2,0.301,21.7c0.5,2.3,2.8,3.899,5.1,3.899
			c4.8,0,9.7-0.1,14.5-0.1c2.4,0,4.2-1.6,5-3.8C80.396,107.782,79.696,98.482,79.496,91.282z M70.196,95.482
			c-0.101,1.9-0.101,3.7-0.2,5.601c-0.1,2-0.1,4.6-0.5,6.699c-2.1,0-4.2,0-6.3,0c-0.5-4.6-0.2-9,0-13.6
			C65.396,94.583,67.795,95.083,70.196,95.482z"/>
		<path d="M194.795,95.782c-6.2,0.4-11.8,3.601-18.3,4.2c-11.3,1-22.9-0.1-34.2-0.8c-14.5-0.8-36-5.2-49.3,2.6
			c-1.3,0.801-2.1,2.5-1.6,4c0.1,0.4,0.3,0.7,0.5,1.101c2.699,3.5,13,0.899,16.8,1c12.7,0.1,25.5,2,38.2,3.1
			c10.3,0.9,49.5,6.9,52.3-9.5C199.595,98.782,197.996,95.583,194.795,95.782z"/>
		<path d="M78.896,150.383c0.1-0.8,0.1-1.7,0.199-2.5c0.101-4.4,0.4-8.7,0.5-13c0.101-2-1.399-4-3.399-4.4
			c-12.3-2.8-26.101,3.9-23.8,18.2c0.8,5.1,4.199,9.7,8.8,11.9c6.399,3.1,13.7,1.5,19.8-1.601
			C85.496,156.583,82.996,150.883,78.896,150.383z M61.696,146.482c-0.3-1.6,0.3-3.899,1.8-5.399c1.8-1.801,4.7-2.2,7.4-2.101
			c0.699,4.3,1.6,8.601,1.699,12.9C67.496,153.183,62.795,152.083,61.696,146.482z"/>
		<path d="M195.295,131.782c-16.6,2.7-32.1,5.801-49.2,6.4c-16.5,0.6-33,0.6-49.399,2.4c-4.2,0.5-4.4,6.8,0,6.699
			c19.899-0.199,39.7,2.2,59.7,2c12.699-0.1,34,0.7,43.699-9C203.896,136.383,199.996,131.083,195.295,131.782z"/>
		<path d="M77.996,173.782c-6.6-2.3-13.8-3.899-20.8-2c-5.7,1.601-5.101,12.601-5,17.101c0.1,2.6,0.399,5.3,1,7.8
			c0.899,3.5,3.2,4.6,6.5,5.4c5,1.199,11.5,0.899,14.899-2.9c1.101,0.1,2.4-0.5,2.9-1.9c1.2-2.899,1.9-5.8,2.3-8.899
			c0.3-2.2,0-5.7,0.9-7.601C82.295,177.883,81.095,174.883,77.996,173.782z M66.896,192.583c-1.4,0.399-2.9,0.199-4.301-0.2
			c-0.899-3.4-0.699-7.8,0.101-11.5c3.5-0.3,7,0.399,10.3,1.3c0.2,1.7,0,3.8,0,5.2c0,1.2-0.1,2.5-0.1,3.8c-0.2,0-0.4-0.1-0.7,0
			C70.295,191.482,68.696,192.083,66.896,192.583z"/>
		<path d="M194.196,175.683c-6.9-5.1-22.4-0.5-30.101,0.2c-23.699,2-47.399,3.3-71,5c-3.8,0.3-3.8,5.7,0,6
			c32.801,2.3,65.301,1.2,97.801-2c0.1,0,0.1,0,0.199,0c0.2,0,0.4-0.101,0.601-0.101
			C196.595,184.083,198.295,178.683,194.196,175.683z"/>
		<path d="M84.696,218.383c0.1-1.5-0.9-3-2.101-3.7c-6.199-3.4-15.1-4.3-22.1-4.5c-2.1-0.1-3.8,1.4-4.4,3.4
			c-1.1,3.6-1.5,7.399-1.6,11.199c-0.1,3.7,0.1,9,2,12.301c2,3.399,9.1,4,12.6,4.5c4.2,0.6,9.101,0.899,12.301-2.2
			c1.199-1.2,1.3-2.9,0.699-4.3c1.4-0.4,2.601-1.5,2.5-3.301C84.196,227.282,84.496,222.782,84.696,218.383z M71.696,232.583
			c-2.5-0.101-4.9-0.801-7.3-1.5c-0.801-3.7-0.9-7.7-0.301-11.4c4.101,0.5,8.2,1.5,12.2,2.3c0.2,3.601,0.4,7.101,1.3,10.601
			C75.595,232.383,73.696,232.683,71.696,232.583z"/>
		<path d="M203.396,213.683c-14.9-6.2-40.9,0.4-56.7,1.5c-17,1.2-34.3,1.8-50.7,5.8c-2.7,0.7-2.8,4.9,0,5.5
			c16.3,3.601,33.9,1.3,50.7,0.4c17.1-1,42.1,2.5,57.8-4.4C208.896,220.583,206.696,215.083,203.396,213.683z"/>
	</g>
</g>
<g>
</g>
<g>
</g>
<g>
</g>
<g>
</g>
<g>
</g>
<g>
</g>
<g>
</g>
<g>
</g>
<g>
</g>
<g>
</g>
<g>
</g>
<g>
</g>
<g>
</g>
<g>
</g>
<g>
</g>
</svg>
